# Blender v3.0.0 OBJ File: ''
# www.blender.org
mtllib enemy.mtl
o Cube
v 1.281828 1.214516 -1.219225
v 1.281828 -1.214516 -1.219225
v 1.281828 1.214516 1.219225
v 1.281828 -1.214516 1.219225
v -1.281828 1.214516 -1.219225
v -1.281828 -1.214516 -1.219225
v -1.281828 1.214516 1.219225
v -1.281828 -1.214516 1.219225
v -1.944272 -1.784318 0.000000
v 1.944272 1.784318 0.000000
v -1.944272 1.784318 0.000000
v 1.944272 -1.784318 0.000000
v 0.000000 -1.708265 -1.721384
v 0.000000 1.708265 1.721384
v 0.000000 -1.708265 1.721384
v 0.000000 1.708265 -1.721384
v 0.000000 -2.238703 0.000000
v 0.000000 2.238703 0.000000
v 1.864946 0.000000 -1.917147
v -1.864946 0.000000 1.917147
v 1.864946 0.000000 1.917147
v -1.864946 0.000000 -1.917147
v 2.506310 0.000000 0.000000
v -2.506310 0.000000 0.000000
v 0.000000 0.000000 -2.551119
v 0.000000 0.000000 2.551119
v -1.000000 -1.000000 0.500000
v 1.000000 1.000000 0.500000
v -1.000000 1.000000 0.500000
v 1.000000 -1.000000 0.500000
v 0.000000 -1.000000 0.500000
v 0.000000 1.000000 0.500000
v -1.000000 0.000000 0.500000
v 1.000000 0.000000 0.500000
v -1.000000 1.000000 -0.500000
v 1.000000 -1.000000 -0.500000
v -1.000000 -1.000000 -0.500000
v 1.000000 1.000000 -0.500000
v 0.000000 1.000000 -0.500000
v 0.000000 -1.000000 -0.500000
v 1.000000 0.000000 -0.500000
v -1.000000 0.000000 -0.500000
v -1.000000 0.500000 1.000000
v 1.000000 0.500000 -1.000000
v 1.000000 0.500000 1.000000
v -1.000000 0.500000 -1.000000
v 1.000000 0.500000 0.000000
v -1.000000 0.500000 0.000000
v 0.000000 0.500000 -1.000000
v 0.000000 0.500000 1.000000
v -1.000000 0.500000 0.500000
v 1.000000 0.500000 0.500000
v 1.000000 0.500000 -0.500000
v -1.000000 0.500000 -0.500000
v 1.000000 -0.500000 -1.000000
v 1.000000 -0.500000 1.000000
v -1.000000 -0.500000 -1.000000
v 1.000000 -0.500000 0.000000
v -1.000000 -0.500000 0.000000
v 0.000000 -0.500000 -1.000000
v 0.000000 -0.500000 1.000000
v -1.000000 -0.500000 1.000000
v 1.000000 -0.500000 0.500000
v -1.000000 -0.500000 0.500000
v -1.000000 -0.500000 -0.500000
v 1.000000 -0.500000 -0.500000
v -0.499445 -1.000000 -1.000000
v -0.499445 1.000000 1.000000
v -0.499445 -1.000000 0.000000
v -0.499445 -1.000000 1.000000
v -0.499445 1.000000 -1.000000
v -0.499445 1.000000 0.000000
v -0.499445 0.000000 -1.000000
v -0.499445 0.000000 1.000000
v -0.499445 -1.000000 0.500000
v -0.499445 1.000000 0.500000
v -0.499445 -1.000000 -0.500000
v -0.499445 1.000000 -0.500000
v -0.499445 0.500000 -1.000000
v -0.499445 0.500000 1.000000
v -0.499445 -0.500000 1.000000
v -0.499445 -0.500000 -1.000000
v 0.500000 -1.000000 1.000000
v 0.500000 1.000000 -1.000000
v 0.500000 1.000000 0.000000
v 0.500000 -1.000000 -1.000000
v 0.500000 1.000000 1.000000
v 0.500000 -1.000000 0.000000
v 0.500000 0.000000 1.000000
v 0.500000 0.000000 -1.000000
v 0.500000 1.000000 0.500000
v 0.500000 -1.000000 0.500000
v 0.500000 1.000000 -0.500000
v 0.500000 -1.000000 -0.500000
v 0.500000 0.500000 1.000000
v 0.500000 0.500000 -1.000000
v 0.500000 -0.500000 -1.000000
v 0.500000 -0.500000 1.000000
vt 0.875000 0.687500
vt 0.812431 0.750000
vt 0.812431 0.687500
vt 0.625000 0.937431
vt 0.562500 1.000000
vt 0.562500 0.937431
vt 0.625000 0.187500
vt 0.562500 0.250000
vt 0.562500 0.187500
vt 0.375000 0.687500
vt 0.312500 0.750000
vt 0.312500 0.687500
vt 0.625000 0.687500
vt 0.562500 0.750000
vt 0.562500 0.687500
vt 0.625000 0.437500
vt 0.562500 0.500000
vt 0.562500 0.437500
vt 0.625000 0.562500
vt 0.562500 0.625000
vt 0.562500 0.562500
vt 0.375000 0.562500
vt 0.312500 0.625000
vt 0.312500 0.562500
vt 0.625000 0.062500
vt 0.562500 0.125000
vt 0.562500 0.062500
vt 0.875000 0.562500
vt 0.812431 0.625000
vt 0.812431 0.562500
vt 0.750000 0.562500
vt 0.687500 0.625000
vt 0.687500 0.562500
vt 0.250000 0.562500
vt 0.187569 0.625000
vt 0.187569 0.562500
vt 0.625000 0.312569
vt 0.562500 0.375000
vt 0.562500 0.312569
vt 0.250000 0.687500
vt 0.187569 0.750000
vt 0.187569 0.687500
vt 0.625000 0.812500
vt 0.562500 0.875000
vt 0.562500 0.812500
vt 0.750000 0.687500
vt 0.687500 0.750000
vt 0.687500 0.687500
vt 0.500000 0.812500
vt 0.437500 0.875000
vt 0.437500 0.812500
vt 0.500000 0.312569
vt 0.437500 0.375000
vt 0.437500 0.312569
vt 0.500000 0.062500
vt 0.437500 0.125000
vt 0.437500 0.062500
vt 0.500000 0.562500
vt 0.437500 0.625000
vt 0.437500 0.562500
vt 0.500000 0.437500
vt 0.437500 0.500000
vt 0.437500 0.437500
vt 0.500000 0.687500
vt 0.437500 0.750000
vt 0.437500 0.687500
vt 0.500000 0.187500
vt 0.437500 0.250000
vt 0.437500 0.187500
vt 0.500000 0.937431
vt 0.437500 1.000000
vt 0.437500 0.937431
vt 0.437500 0.000000
vt 0.562500 0.000000
vt 0.187569 0.500000
vt 0.687500 0.500000
vt 0.812431 0.500000
vt 0.312500 0.500000
vt 0.500000 0.125000
vt 0.500000 0.500000
vt 0.500000 0.625000
vt 0.500000 0.000000
vt 0.500000 0.875000
vt 0.500000 0.375000
vt 0.500000 0.750000
vt 0.500000 0.250000
vt 0.500000 1.000000
vt 0.375000 0.500000
vt 0.375000 0.187500
vt 0.375000 0.125000
vt 0.375000 0.062500
vt 0.375000 0.000000
vt 0.375000 0.625000
vt 0.375000 0.937431
vt 0.375000 1.000000
vt 0.375000 0.250000
vt 0.375000 0.750000
vt 0.375000 0.437500
vt 0.375000 0.312569
vt 0.375000 0.375000
vt 0.375000 0.812500
vt 0.375000 0.875000
vt 0.750000 0.500000
vt 0.125000 0.562500
vt 0.125000 0.500000
vt 0.750000 0.625000
vt 0.125000 0.687500
vt 0.125000 0.625000
vt 0.125000 0.750000
vt 0.750000 0.750000
vt 0.250000 0.500000
vt 0.625000 0.500000
vt 0.250000 0.625000
vt 0.625000 0.625000
vt 0.625000 0.750000
vt 0.250000 0.750000
vt 0.875000 0.750000
vt 0.625000 1.000000
vt 0.625000 0.250000
vt 0.625000 0.125000
vt 0.875000 0.625000
vt 0.625000 0.375000
vt 0.625000 0.875000
vt 0.625000 0.000000
vt 0.875000 0.500000
vn 0.0000 1.0000 0.0000
vn 0.0000 0.0000 1.0000
vn -1.0000 0.0000 0.0000
vn 0.0000 -1.0000 0.0000
vn 1.0000 0.0000 0.0000
vn 0.0000 0.0000 -1.0000
vn -0.2285 0.6884 -0.6884
vn 0.7570 0.4620 0.4620
vn 0.2285 0.6884 0.6884
vn -0.7570 0.4620 -0.4620
vn 0.6894 0.6894 0.2222
vn -0.6898 0.6891 -0.2221
vn -0.2285 0.6884 0.6884
vn 0.2285 0.6884 -0.6884
vn -0.4871 0.4871 -0.7249
vn 0.7570 0.4620 -0.4620
vn -0.7570 0.4620 0.4620
vn 0.4869 0.4874 0.7249
vn 0.9197 0.2776 0.2776
vn -0.6932 0.5097 -0.5097
vn -0.9197 0.2776 -0.2776
vn 0.6932 0.5097 0.5097
vn 0.2099 0.2102 0.9549
vn -0.9197 0.2776 0.2776
vn 0.9197 0.2776 -0.2776
vn -0.2101 0.2101 -0.9548
vn 0.6932 0.5097 -0.5097
vn -0.6932 0.5097 0.5097
vn -0.4566 0.4561 -0.7639
vn 0.4562 0.4562 0.7641
vn 0.2099 0.2102 -0.9549
vn -0.4566 0.4561 0.7639
vn -0.6898 0.6891 0.2221
vn 0.4869 0.4874 -0.7249
vn -0.4488 0.7731 0.4483
vn 0.2049 -0.9570 0.2051
vn -0.6804 0.2743 0.6796
vn 0.4305 -0.7930 0.4310
vn 0.2049 -0.9570 -0.2051
vn 0.4305 -0.7930 -0.4310
vn -0.6804 0.2743 -0.6796
vn -0.4488 0.7731 -0.4483
vn -0.2101 0.2101 0.9548
vn 0.4562 0.4562 -0.7641
vn 0.6894 0.6894 -0.2222
vn -0.4871 0.4871 0.7249
vn 0.4484 -0.7732 0.4484
vn -0.2051 0.9570 0.2051
vn 0.6800 -0.2745 0.6800
vn -0.4307 0.7931 0.4307
vn -0.2051 0.9570 -0.2051
vn -0.4307 0.7931 -0.4307
vn 0.6800 -0.2745 -0.6800
vn 0.4484 -0.7732 -0.4484
vn 0.2049 0.9570 -0.2051
vn 0.2099 -0.2102 0.9549
vn -0.9197 -0.2776 0.2776
vn -0.2051 -0.9570 -0.2051
vn 0.9197 -0.2776 -0.2776
vn -0.2101 -0.2101 -0.9548
vn 0.6932 -0.5097 -0.5097
vn -0.4307 -0.7931 -0.4307
vn -0.6932 -0.5097 0.5097
vn 0.4305 0.7930 -0.4310
vn 0.6800 0.2745 -0.6800
vn -0.6804 -0.2743 -0.6796
vn -0.4566 -0.4561 -0.7639
vn -0.4488 -0.7731 -0.4483
vn 0.4562 -0.4562 0.7641
vn 0.4484 0.7732 -0.4484
vn 0.6894 -0.6894 0.2222
vn -0.6898 -0.6891 -0.2221
vn -0.2285 -0.6884 0.6884
vn 0.2285 -0.6884 -0.6884
vn -0.4871 -0.4871 -0.7249
vn 0.7570 -0.4620 -0.4620
vn -0.7570 -0.4620 0.4620
vn 0.4869 -0.4874 0.7249
vn 0.2285 -0.6884 0.6884
vn -0.7570 -0.4620 -0.4620
vn 0.6800 0.2745 0.6800
vn -0.6804 -0.2743 0.6796
vn -0.9197 -0.2776 -0.2776
vn 0.6932 -0.5097 0.5097
vn -0.4307 -0.7931 0.4307
vn 0.4305 0.7930 0.4310
vn -0.2285 -0.6884 -0.6884
vn 0.7570 -0.4620 0.4620
vn -0.4488 -0.7731 0.4483
vn 0.4484 0.7732 0.4484
vn 0.2049 0.9570 0.2051
vn -0.2051 -0.9570 0.2051
vn 0.9197 -0.2776 0.2776
vn -0.6932 -0.5097 -0.5097
vn -0.6898 -0.6891 0.2221
vn 0.4869 -0.4874 -0.7249
vn 0.2099 -0.2102 -0.9549
vn -0.4566 -0.4561 0.7639
vn 0.6894 -0.6894 -0.2222
vn -0.4871 -0.4871 0.7249
vn -0.2101 -0.2101 0.9548
vn 0.4562 -0.4562 -0.7641
usemtl Material
s off
f 29/1/1 68/2/1 76/3/1
f 68/4/2 43/5/2 80/6/2
f 35/7/3 46/8/3 54/9/3
f 30/10/4 83/11/4 92/12/4
f 28/13/5 45/14/5 52/15/5
f 84/16/6 44/17/6 96/18/6
f 38/19/5 47/20/5 53/21/5
f 36/22/4 88/23/4 94/24/4
f 29/25/3 48/26/3 51/27/3
f 35/28/1 72/29/1 78/30/1
f 39/31/1 85/32/1 93/33/1
f 40/34/4 69/35/4 77/36/4
f 71/37/6 49/38/6 79/39/6
f 31/40/4 70/41/4 75/42/4
f 87/43/2 50/44/2 95/45/2
f 32/46/1 87/47/1 91/48/1
f 89/49/2 61/50/2 98/51/2
f 73/52/6 60/53/6 82/54/6
f 33/55/3 59/56/3 64/57/3
f 41/58/5 58/59/5 66/60/5
f 90/61/6 55/62/6 97/63/6
f 34/64/5 56/65/5 63/66/5
f 42/67/3 57/68/3 65/69/3
f 74/70/2 62/71/2 81/72/2
f 58/59/5 34/64/5 63/66/5
f 62/73/3 33/55/3 64/57/3
f 85/32/1 32/46/1 91/48/1
f 69/35/4 31/40/4 75/42/4
f 43/74/3 29/25/3 51/27/3
f 47/20/5 28/13/5 52/15/5
f 88/23/4 30/10/4 92/12/4
f 72/29/1 29/1/1 76/3/1
f 59/56/3 42/67/3 65/69/3
f 55/62/5 41/58/5 66/60/5
f 67/75/4 40/34/4 77/36/4
f 84/76/1 39/31/1 93/33/1
f 71/77/1 35/28/1 78/30/1
f 86/78/4 36/22/4 94/24/4
f 44/17/5 38/19/5 53/21/5
f 48/26/3 35/7/3 54/9/3
f 48/26/7 42/67/7 24/79/7
f 44/17/8 41/58/8 19/80/8
f 47/20/9 34/64/9 23/81/9
f 43/74/10 33/55/10 20/82/10
f 89/49/11 50/44/11 26/83/11
f 73/52/12 49/38/12 25/84/12
f 33/55/13 48/26/13 24/79/13
f 41/58/14 47/20/14 23/81/14
f 90/61/15 44/17/15 19/80/15
f 34/64/16 45/14/16 21/85/16
f 42/67/17 46/8/17 22/86/17
f 74/70/18 43/5/18 20/87/18
f 55/62/19 36/22/19 2/88/19
f 59/56/20 37/89/20 9/90/20
f 62/73/21 27/91/21 8/92/21
f 58/59/22 30/10/22 12/93/22
f 70/94/23 62/71/23 8/95/23
f 37/89/24 57/68/24 6/96/24
f 30/10/25 56/65/25 4/97/25
f 86/98/26 55/62/26 2/88/26
f 36/22/27 58/59/27 12/93/27
f 27/91/28 59/56/28 9/90/28
f 67/99/29 60/53/29 13/100/29
f 83/101/30 61/50/30 15/102/30
f 57/68/31 67/99/31 6/96/31
f 61/50/32 70/94/32 15/102/32
f 50/44/33 74/70/33 26/83/33
f 46/8/34 73/52/34 22/86/34
f 71/77/35 39/31/35 16/103/35
f 67/75/36 37/104/36 6/105/36
f 72/29/37 32/46/37 18/106/37
f 69/35/38 27/107/38 9/108/38
f 61/50/2 74/70/2 81/72/2
f 57/68/6 73/52/6 82/54/6
f 27/107/39 70/41/39 8/109/39
f 46/8/6 71/37/6 79/39/6
f 37/104/40 69/35/40 9/108/40
f 39/31/41 72/29/41 18/106/41
f 50/44/2 68/4/2 80/6/2
f 32/46/42 68/2/42 14/110/42
f 56/65/43 83/101/43 4/97/43
f 60/53/44 86/98/44 13/100/44
f 49/38/45 90/61/45 25/84/45
f 45/14/46 89/49/46 21/85/46
f 86/78/47 40/34/47 13/111/47
f 84/76/48 38/19/48 1/112/48
f 88/23/49 31/40/49 17/113/49
f 85/32/50 28/13/50 10/114/50
f 60/53/6 90/61/6 97/63/6
f 56/65/2 89/49/2 98/51/2
f 28/13/51 87/47/51 3/115/51
f 45/14/2 87/43/2 95/45/2
f 38/19/52 85/32/52 10/114/52
f 40/34/53 88/23/53 17/113/53
f 49/38/6 84/16/6 96/18/6
f 31/40/54 83/11/54 15/116/54
f 29/1/55 7/117/55 68/2/55
f 68/4/56 7/118/56 43/5/56
f 35/7/57 5/119/57 46/8/57
f 30/10/58 4/97/58 83/11/58
f 28/13/59 3/115/59 45/14/59
f 84/16/60 1/112/60 44/17/60
f 38/19/61 10/114/61 47/20/61
f 36/22/62 12/93/62 88/23/62
f 29/25/63 11/120/63 48/26/63
f 35/28/64 11/121/64 72/29/64
f 39/31/65 18/106/65 85/32/65
f 40/34/66 17/113/66 69/35/66
f 71/37/67 16/122/67 49/38/67
f 31/40/68 15/116/68 70/41/68
f 87/43/69 14/123/69 50/44/69
f 32/46/70 14/110/70 87/47/70
f 89/49/71 26/83/71 61/50/71
f 73/52/72 25/84/72 60/53/72
f 33/55/73 24/79/73 59/56/73
f 41/58/74 23/81/74 58/59/74
f 90/61/75 19/80/75 55/62/75
f 34/64/76 21/85/76 56/65/76
f 42/67/77 22/86/77 57/68/77
f 74/70/78 20/87/78 62/71/78
f 58/59/79 23/81/79 34/64/79
f 62/73/80 20/82/80 33/55/80
f 85/32/81 18/106/81 32/46/81
f 69/35/82 17/113/82 31/40/82
f 43/74/83 7/124/83 29/25/83
f 47/20/84 10/114/84 28/13/84
f 88/23/85 12/93/85 30/10/85
f 72/29/86 11/121/86 29/1/86
f 59/56/87 24/79/87 42/67/87
f 55/62/88 19/80/88 41/58/88
f 67/75/89 13/111/89 40/34/89
f 84/76/90 16/103/90 39/31/90
f 71/77/91 5/125/91 35/28/91
f 86/78/92 2/88/92 36/22/92
f 44/17/93 1/112/93 38/19/93
f 48/26/94 11/120/94 35/7/94
f 48/26/3 54/9/3 42/67/3
f 44/17/5 53/21/5 41/58/5
f 47/20/5 52/15/5 34/64/5
f 43/74/3 51/27/3 33/55/3
f 89/49/2 95/45/2 50/44/2
f 73/52/6 79/39/6 49/38/6
f 33/55/3 51/27/3 48/26/3
f 41/58/5 53/21/5 47/20/5
f 90/61/6 96/18/6 44/17/6
f 34/64/5 52/15/5 45/14/5
f 42/67/3 54/9/3 46/8/3
f 74/70/2 80/6/2 43/5/2
f 55/62/5 66/60/5 36/22/5
f 59/56/3 65/69/3 37/89/3
f 62/73/3 64/57/3 27/91/3
f 58/59/5 63/66/5 30/10/5
f 70/94/2 81/72/2 62/71/2
f 37/89/3 65/69/3 57/68/3
f 30/10/5 63/66/5 56/65/5
f 86/98/6 97/63/6 55/62/6
f 36/22/5 66/60/5 58/59/5
f 27/91/3 64/57/3 59/56/3
f 67/99/6 82/54/6 60/53/6
f 83/101/2 98/51/2 61/50/2
f 57/68/6 82/54/6 67/99/6
f 61/50/2 81/72/2 70/94/2
f 50/44/2 80/6/2 74/70/2
f 46/8/6 79/39/6 73/52/6
f 71/77/1 78/30/1 39/31/1
f 67/75/4 77/36/4 37/104/4
f 72/29/1 76/3/1 32/46/1
f 69/35/4 75/42/4 27/107/4
f 61/50/95 26/83/95 74/70/95
f 57/68/96 22/86/96 73/52/96
f 27/107/4 75/42/4 70/41/4
f 46/8/97 5/119/97 71/37/97
f 37/104/4 77/36/4 69/35/4
f 39/31/1 78/30/1 72/29/1
f 50/44/98 14/123/98 68/4/98
f 32/46/1 76/3/1 68/2/1
f 56/65/2 98/51/2 83/101/2
f 60/53/6 97/63/6 86/98/6
f 49/38/6 96/18/6 90/61/6
f 45/14/2 95/45/2 89/49/2
f 86/78/4 94/24/4 40/34/4
f 84/76/1 93/33/1 38/19/1
f 88/23/4 92/12/4 31/40/4
f 85/32/1 91/48/1 28/13/1
f 60/53/99 25/84/99 90/61/99
f 56/65/100 21/85/100 89/49/100
f 28/13/1 91/48/1 87/47/1
f 45/14/101 3/115/101 87/43/101
f 38/19/1 93/33/1 85/32/1
f 40/34/4 94/24/4 88/23/4
f 49/38/102 16/122/102 84/16/102
f 31/40/4 92/12/4 83/11/4
