# Blender v3.0.0 OBJ File: 'low_fighter.blend'
# www.blender.org
mtllib low_fighter.mtl
o Cube
v 0.342854 0.191046 -1.107645
v 0.342854 -0.191046 -1.107645
v 1.780086 1.133067 2.502911
v 1.780086 -1.133067 2.502911
v -0.342854 0.191046 -1.107645
v -0.342854 -0.191046 -1.107645
v -1.780086 1.133067 2.502911
v -1.780086 -1.133067 2.502911
v 0.293580 0.000000 -1.519248
v -0.742548 0.000000 1.000000
v 0.742548 0.000000 1.000000
v -0.293580 0.000000 -1.519248
v 0.000000 -0.325323 -1.644255
v 0.000000 0.668667 1.883487
v 0.000000 -0.668667 1.883487
v 0.000000 0.325323 -1.644255
v 0.000000 0.000000 -3.703041
v 0.000000 0.000000 1.192153
v -0.602175 -0.324075 0.000000
v 0.602175 0.324075 0.000000
v -0.602175 0.324075 0.000000
v 0.602175 -0.324075 0.000000
v 0.596384 0.000000 -0.010602
v -0.596384 0.000000 -0.010602
v 0.000000 -0.549340 0.000000
v 0.000000 0.549340 0.000000
v -0.160340 -0.155358 -2.022117
v -0.404523 0.417993 0.821331
v -0.353439 0.000000 0.803372
v -0.404523 -0.417993 0.821331
v -0.160340 0.155358 -2.022117
v -0.107539 0.000000 -2.744430
v -0.268252 -0.349018 0.000000
v -0.268252 0.349018 0.000000
v 0.404523 -0.417993 0.821331
v 0.160340 0.155358 -2.022117
v 0.107539 0.000000 -2.744430
v 0.160340 -0.155358 -2.022117
v 0.404523 0.417993 0.821331
v 0.353439 0.000000 0.803372
v 0.268252 0.349018 0.000000
v 0.268252 -0.349018 0.000000
vt 0.875000 0.625000
vt 0.812500 0.750000
vt 0.812500 0.625000
vt 0.625000 0.937500
vt 0.500000 1.000000
vt 0.500000 0.937500
vt 0.500000 0.125000
vt 0.625000 0.250000
vt 0.500000 0.250000
vt 0.375000 0.625000
vt 0.312500 0.750000
vt 0.312500 0.625000
vt 0.625000 0.625000
vt 0.500000 0.750000
vt 0.500000 0.625000
vt 0.625000 0.437500
vt 0.500000 0.500000
vt 0.500000 0.437500
vt 0.375000 0.437500
vt 0.375000 0.500000
vt 0.375000 0.750000
vt 0.375000 0.250000
vt 0.375000 0.125000
vt 0.375000 0.937500
vt 0.375000 1.000000
vt 0.375000 0.812500
vt 0.500000 0.875000
vt 0.375000 0.875000
vt 0.500000 0.312500
vt 0.375000 0.375000
vt 0.375000 0.312500
vt 0.625000 0.375000
vt 0.500000 0.375000
vt 0.250000 0.625000
vt 0.187500 0.750000
vt 0.187500 0.625000
vt 0.625000 0.812500
vt 0.500000 0.812500
vt 0.750000 0.625000
vt 0.687500 0.750000
vt 0.687500 0.625000
vt 0.750000 0.500000
vt 0.687500 0.500000
vt 0.250000 0.500000
vt 0.187500 0.500000
vt 0.500000 0.000000
vt 0.375000 0.000000
vt 0.625000 0.500000
vt 0.312500 0.500000
vt 0.625000 0.125000
vt 0.875000 0.500000
vt 0.812500 0.500000
vt 0.125000 0.500000
vt 0.125000 0.625000
vt 0.125000 0.750000
vt 0.625000 0.312500
vt 0.750000 0.750000
vt 0.625000 0.750000
vt 0.250000 0.750000
vt 0.875000 0.750000
vt 0.625000 1.000000
vt 0.625000 0.875000
vt 0.625000 0.000000
vn -0.0741 0.9926 -0.0957
vn 0.4510 0.0168 0.8924
vn -0.9664 0.1687 -0.1940
vn 0.0741 -0.9926 -0.0957
vn 0.9896 -0.0130 -0.1431
vn 0.9296 0.3404 -0.1412
vn 0.9631 -0.1809 -0.1993
vn 0.8595 0.4385 -0.2628
vn -0.9739 0.0100 -0.2268
vn 0.6872 0.2669 0.6757
vn 0.8098 0.4218 0.4079
vn -0.4163 -0.8822 -0.2202
vn -0.8120 0.5765 -0.0911
vn -0.5902 -0.7904 -0.1643
vn 0.7347 -0.1185 0.6679
vn 0.5902 0.7904 -0.1643
vn 0.5919 0.7987 -0.1081
vn -0.5919 -0.7987 -0.1081
vn -0.8595 0.4385 -0.2628
vn 0.9739 0.0100 -0.2268
vn 0.9664 0.1687 -0.1940
vn 0.3597 -0.9268 -0.1080
vn -0.9896 -0.0130 -0.1431
vn -0.3597 0.9268 -0.1080
vn -0.5948 0.7965 -0.1085
vn -0.0738 -0.9880 -0.1359
vn 0.2774 -0.9447 -0.1748
vn -0.9296 0.3404 -0.1412
vn -0.9631 -0.1809 -0.1993
vn -0.8098 0.4218 0.4079
vn -0.7347 -0.1185 0.6679
vn -0.4122 0.9093 -0.0576
vn 0.5948 -0.7965 -0.1085
vn 0.0738 0.9880 -0.1359
vn -0.2774 0.9447 -0.1748
vn -0.4510 0.0168 0.8924
vn -0.6872 0.2669 0.6757
vn 0.4163 -0.8822 -0.2202
vn 0.8120 0.5765 -0.0911
vn 0.4122 -0.9093 -0.0576
vn 0.2774 0.9447 -0.1748
vn 0.6872 -0.2669 0.6757
vn -0.9739 -0.0100 -0.2268
vn -0.2774 -0.9447 -0.1748
vn 0.8595 -0.4385 -0.2628
vn 0.9631 0.1809 -0.1993
vn 0.9296 -0.3404 -0.1412
vn 0.9896 0.0130 -0.1431
vn -0.9664 -0.1687 -0.1940
vn 0.4510 -0.0168 0.8924
vn 0.7347 0.1185 0.6679
vn -0.8120 -0.5765 -0.0911
vn -0.4163 0.8822 -0.2202
vn -0.4122 -0.9093 -0.0576
vn 0.8098 -0.4218 0.4079
vn 0.4122 0.9093 -0.0576
vn 0.5948 0.7965 -0.1085
vn -0.5948 -0.7965 -0.1085
vn -0.9896 0.0130 -0.1431
vn 0.9664 -0.1687 -0.1940
vn 0.9739 -0.0100 -0.2268
vn 0.0738 -0.9880 -0.1359
vn -0.8595 -0.4385 -0.2628
vn -0.0738 0.9880 -0.1359
vn -0.5919 0.7987 -0.1081
vn -0.3597 -0.9268 -0.1080
vn -0.0741 -0.9926 -0.0957
vn -0.9631 0.1809 -0.1993
vn -0.9296 -0.3404 -0.1412
vn -0.7347 0.1185 0.6679
vn -0.8098 -0.4218 0.4079
vn -0.5902 0.7904 -0.1643
vn 0.5919 -0.7987 -0.1081
vn 0.3597 0.9268 -0.1080
vn 0.0741 0.9926 -0.0957
vn -0.6872 -0.2669 0.6757
vn -0.4510 -0.0168 0.8924
vn 0.8120 -0.5765 -0.0911
vn 0.4163 0.8822 -0.2202
vn 0.5902 -0.7904 -0.1643
usemtl Material
s off
f 21/1/1 28/2/1 34/3/1
f 28/4/2 10/5/2 29/6/2
f 24/7/3 5/8/3 12/9/3
f 22/10/4 35/11/4 42/12/4
f 20/13/5 11/14/5 23/15/5
f 36/16/6 9/17/6 37/18/6
f 38/19/7 9/17/7 2/20/7
f 22/10/8 11/14/8 4/21/8
f 24/7/9 6/22/9 19/23/9
f 30/24/10 10/5/10 8/25/10
f 35/26/11 18/27/11 15/28/11
f 32/29/12 13/30/12 27/31/12
f 32/29/13 16/32/13 17/33/13
f 25/34/14 30/35/14 33/36/14
f 39/37/15 18/27/15 40/38/15
f 26/39/16 39/40/16 41/41/16
f 16/42/17 41/41/17 36/43/17
f 13/44/18 33/36/18 27/45/18
f 10/46/19 19/23/19 8/47/19
f 2/20/20 23/15/20 22/10/20
f 1/48/21 23/15/21 9/17/21
f 2/20/22 42/12/22 38/49/22
f 10/46/23 21/50/23 24/7/23
f 5/51/24 34/3/24 31/52/24
f 16/42/25 34/3/25 26/39/25
f 6/53/26 33/36/26 19/54/26
f 19/54/27 30/35/27 8/55/27
f 12/9/28 31/56/28 32/29/28
f 12/9/29 27/31/29 6/22/29
f 18/27/30 30/24/30 15/28/30
f 18/27/31 28/4/31 29/6/31
f 26/39/32 28/2/32 14/57/32
f 13/44/33 42/12/33 25/34/33
f 1/48/34 41/41/34 20/13/34
f 20/13/35 39/40/35 3/58/35
f 11/14/36 39/37/36 40/38/36
f 11/14/37 35/26/37 4/21/37
f 13/30/38 37/18/38 38/19/38
f 16/32/39 37/18/39 17/33/39
f 25/34/40 35/11/40 15/59/40
f 21/1/41 7/60/41 28/2/41
f 28/4/42 7/61/42 10/5/42
f 24/7/43 21/50/43 5/8/43
f 22/10/44 4/21/44 35/11/44
f 20/13/45 3/58/45 11/14/45
f 36/16/46 1/48/46 9/17/46
f 38/19/47 37/18/47 9/17/47
f 22/10/48 23/15/48 11/14/48
f 24/7/49 12/9/49 6/22/49
f 30/24/50 29/6/50 10/5/50
f 35/26/51 40/38/51 18/27/51
f 32/29/52 17/33/52 13/30/52
f 32/29/53 31/56/53 16/32/53
f 25/34/54 15/59/54 30/35/54
f 39/37/55 14/62/55 18/27/55
f 26/39/56 14/57/56 39/40/56
f 16/42/57 26/39/57 41/41/57
f 13/44/58 25/34/58 33/36/58
f 10/46/59 24/7/59 19/23/59
f 2/20/60 9/17/60 23/15/60
f 1/48/61 20/13/61 23/15/61
f 2/20/62 22/10/62 42/12/62
f 10/46/63 7/63/63 21/50/63
f 5/51/64 21/1/64 34/3/64
f 16/42/65 31/52/65 34/3/65
f 6/53/66 27/45/66 33/36/66
f 19/54/67 33/36/67 30/35/67
f 12/9/68 5/8/68 31/56/68
f 12/9/69 32/29/69 27/31/69
f 18/27/70 29/6/70 30/24/70
f 18/27/71 14/62/71 28/4/71
f 26/39/72 34/3/72 28/2/72
f 13/44/73 38/49/73 42/12/73
f 1/48/74 36/43/74 41/41/74
f 20/13/75 41/41/75 39/40/75
f 11/14/76 3/58/76 39/37/76
f 11/14/77 40/38/77 35/26/77
f 13/30/78 17/33/78 37/18/78
f 16/32/79 36/16/79 37/18/79
f 25/34/80 42/12/80 35/11/80
