# Blender v3.3.1 OBJ File: 'bullet.blend'
# www.blender.org
mtllib bullet.mtl
o Cube
v -0.357967 0.382531 0.879469
v -0.357967 -0.382531 0.879469
v -0.491427 0.535627 -1.288934
v -0.491427 -0.535627 -1.288934
v 0.345653 0.382531 0.884381
v 0.345653 -0.382531 0.884381
v 0.509374 0.535627 -1.281947
v 0.509374 -0.535627 -1.281947
v -0.654703 0.000000 0.946379
v 0.922331 0.000000 -2.072633
v -0.893304 0.000000 -2.085309
v 0.641426 0.000000 0.955428
v -0.010137 -0.522841 1.452106
v 0.013427 0.841643 -1.923354
v 0.013427 -0.841643 -1.923354
v -0.010137 0.522841 1.452106
v -0.026437 0.000000 3.786996
v 0.021246 0.000000 -3.043367
vt 0.875000 0.500000
vt 0.750000 0.750000
vt 0.750000 0.500000
vt 0.625000 0.875000
vt 0.500000 1.000000
vt 0.500000 0.875000
vt 0.625000 0.000000
vt 0.500000 0.250000
vt 0.500000 0.000000
vt 0.375000 0.500000
vt 0.250000 0.750000
vt 0.250000 0.500000
vt 0.500000 0.500000
vt 0.625000 0.750000
vt 0.500000 0.750000
vt 0.625000 0.375000
vt 0.500000 0.375000
vt 0.375000 0.375000
vt 0.375000 0.750000
vt 0.375000 0.000000
vt 0.375000 0.250000
vt 0.375000 0.875000
vt 0.375000 1.000000
vt 0.125000 0.500000
vt 0.125000 0.750000
vt 0.625000 0.500000
vt 0.875000 0.750000
vt 0.625000 1.000000
vt 0.625000 0.250000
vn 0.4810 0.8725 0.0858
vn 0.5415 0.6739 -0.5026
vn 0.8420 0.5338 0.0781
vn -0.4821 -0.8725 0.0790
vn -0.8430 0.5338 0.0663
vn -0.6922 0.7053 0.1531
vn -0.7302 -0.6176 0.2922
vn -0.7790 -0.6203 0.0917
vn 0.7776 -0.6203 0.1026
vn 0.6571 -0.7374 -0.1563
vn -0.6549 -0.7374 -0.1655
vn 0.7261 -0.6176 0.3024
vn 0.6900 0.7053 0.1627
vn 0.4299 -0.8978 0.0959
vn -0.5344 0.6739 -0.5101
vn -0.4312 0.8978 0.0899
vn 0.4299 0.8978 0.0959
vn 0.6571 0.7374 -0.1563
vn 0.7776 0.6203 0.1026
vn -0.4312 -0.8978 0.0899
vn -0.7790 0.6203 0.0917
vn -0.7302 0.6176 0.2922
vn -0.6922 -0.7053 0.1531
vn -0.8430 -0.5338 0.0663
vn 0.8420 -0.5338 0.0781
vn 0.5415 -0.6739 -0.5026
vn -0.5344 -0.6739 -0.5101
vn 0.6900 -0.7053 0.1627
vn 0.7261 0.6176 0.3024
vn 0.4810 -0.8725 0.0858
vn -0.6549 0.7374 -0.1655
vn -0.4821 0.8725 0.0790
usemtl Material
s off
f 5/1/1 14/2/1 16/3/1
f 14/4/2 10/5/2 18/6/2
f 7/7/3 12/8/3 10/9/3
f 2/10/4 15/11/4 13/12/4
f 9/13/5 3/14/5 11/15/5
f 16/16/6 9/13/6 17/17/6
f 13/18/7 9/13/7 2/10/7
f 9/13/8 4/19/8 2/10/8
f 8/20/9 12/8/9 6/21/9
f 15/22/10 10/5/10 8/23/10
f 11/15/11 15/22/11 4/19/11
f 12/8/12 13/18/12 6/21/12
f 12/8/13 16/16/13 17/17/13
f 6/24/14 15/11/14 8/25/14
f 11/15/15 14/4/15 18/6/15
f 1/26/16 14/2/16 3/14/16
f 5/1/17 7/27/17 14/2/17
f 14/4/18 7/28/18 10/5/18
f 7/7/19 5/29/19 12/8/19
f 2/10/20 4/19/20 15/11/20
f 9/13/21 1/26/21 3/14/21
f 16/16/22 1/26/22 9/13/22
f 13/18/23 17/17/23 9/13/23
f 9/13/24 11/15/24 4/19/24
f 8/20/25 10/9/25 12/8/25
f 15/22/26 18/6/26 10/5/26
f 11/15/27 18/6/27 15/22/27
f 12/8/28 17/17/28 13/18/28
f 12/8/29 5/29/29 16/16/29
f 6/24/30 13/12/30 15/11/30
f 11/15/31 3/14/31 14/4/31
f 1/26/32 16/3/32 14/2/32
